<svg xmlns="http://www.w3.org/2000/svg" viewBox="0 0 231.09 132.45"><defs><style>.cls-1{fill:#3e9bd9;}.cls-2{fill:#9bcef3;}.cls-3{fill:#426fb4;}.cls-4,.cls-6{fill:none;}.cls-4{stroke:#000;stroke-miterlimit:10;}.cls-5{fill:#fff;}</style></defs><g id="Calque_2" data-name="Calque 2"><g id="Calque_1-2" data-name="Calque 1"><path class="cls-1" d="M13.64,29.1H8.28v72.12A26.69,26.69,0,0,0,35,127.91h5.36V55.79A26.68,26.68,0,0,0,13.64,29.1"/><rect class="cls-2" x="27.05" y="13.83" width="12.49" height="12.49"/><rect class="cls-3" x="49.52" y="4.55" width="8.16" height="8.16"/><rect class="cls-3" x="39.52" y="33.46" width="5.79" height="5.79"/><rect x="48.27" y="48.74" width="5.79" height="5.79"/><rect class="cls-4" x="51.99" y="21.61" width="12.49" height="12.49"/><rect class="cls-5" x="19.48" y="72.85" width="11.47" height="35.06"/><path d="M80,76q3.47,3.63,3.46,9.78v22.1H72V89.12a6.58,6.58,0,0,0-1.63-4.7,5.69,5.69,0,0,0-4.34-1.72,6.66,6.66,0,0,0-4.69,1.88,7.57,7.57,0,0,0-2.17,4.8v18.53H47.66V72.85H59.2v5.71A12.42,12.42,0,0,1,64,74a14.26,14.26,0,0,1,6.77-1.56A12.18,12.18,0,0,1,80,76"/><path d="M103.58,80.37a4.68,4.68,0,0,0-2.4.55,1.82,1.82,0,0,0-.9,1.65,2.12,2.12,0,0,0,1.42,1.88A25.64,25.64,0,0,0,106.24,86a56.44,56.44,0,0,1,6.25,2.17,11.4,11.4,0,0,1,4.31,3.24,8.55,8.55,0,0,1,1.81,5.67,9.73,9.73,0,0,1-4.11,8.32q-4.11,3-10.73,3a28.5,28.5,0,0,1-8.55-1.27A22.69,22.69,0,0,1,88,103.44L91.59,96a25.39,25.39,0,0,0,6.26,3.2,18.8,18.8,0,0,0,6.18,1.14,5.56,5.56,0,0,0,2.69-.55,1.74,1.74,0,0,0,1-1.59,2.22,2.22,0,0,0-1.46-2,28.21,28.21,0,0,0-4.57-1.55,53.07,53.07,0,0,1-6.09-2.17,11.65,11.65,0,0,1-4.18-3.21,8.4,8.4,0,0,1-1.78-5.57,9.83,9.83,0,0,1,4-8.33,16.8,16.8,0,0,1,10.36-3,28.05,28.05,0,0,1,7.55,1,27.64,27.64,0,0,1,7,3l-3.88,7.51q-6.81-3.56-11.15-3.56"/><rect x="124.84" y="72.85" width="11.47" height="35.06"/><path d="M180.5,59.83v48.08H169v-4.54a11.76,11.76,0,0,1-4.44,3.73,13.51,13.51,0,0,1-5.93,1.26A16,16,0,0,1,150,106.1a15.28,15.28,0,0,1-5.73-6.39,21.07,21.07,0,0,1-2-9.49,20.6,20.6,0,0,1,2-9.33,14.87,14.87,0,0,1,5.64-6.22,15.91,15.91,0,0,1,8.42-2.21,13.82,13.82,0,0,1,6.06,1.3A12.87,12.87,0,0,1,169,77.45V59.83ZM47.88,119.23h1.75v6.71H47.88Zm8.3,2a2,2,0,0,1,.52,1.45v3.26H55v-2.77a1,1,0,0,0-.24-.7.83.83,0,0,0-.64-.25,1,1,0,0,0-.69.28,1.09,1.09,0,0,0-.32.7v2.74h-1.7v-5.18h1.7v.85a1.78,1.78,0,0,1,.71-.68,2,2,0,0,1,1-.23,1.81,1.81,0,0,1,1.36.53m6.93,0a2,2,0,0,1,.51,1.45v3.26H61.93v-2.77a1,1,0,0,0-.24-.7.83.83,0,0,0-.64-.25,1,1,0,0,0-.7.28,1.14,1.14,0,0,0-.32.7v2.74h-1.7v-5.18H60v.85a1.87,1.87,0,0,1,.72-.68,2,2,0,0,1,1-.23,1.82,1.82,0,0,1,1.36.53m6-.19a2.34,2.34,0,0,1,1,.93,2.58,2.58,0,0,1,.36,1.38,2.64,2.64,0,0,1-.36,1.39,2.34,2.34,0,0,1-1,.93,3.19,3.19,0,0,1-1.48.33,3.24,3.24,0,0,1-1.49-.33,2.46,2.46,0,0,1-1-.93,2.73,2.73,0,0,1-.35-1.39,2.67,2.67,0,0,1,.35-1.38,2.46,2.46,0,0,1,1-.93,3.24,3.24,0,0,1,1.49-.33,3.19,3.19,0,0,1,1.48.33m-2.29,1.4a1.59,1.59,0,0,0,0,1.86,1.09,1.09,0,0,0,1.62,0,1.37,1.37,0,0,0,.31-.93,1.33,1.33,0,0,0-.32-.93,1,1,0,0,0-.8-.36,1,1,0,0,0-.81.36M71,120.76h1.76l1.08,3.6,1.09-3.6h1.7l-1.94,5.18H72.91Zm10.54.43a1.75,1.75,0,0,1,.6,1.38v3.37H80.44v-.58a1.87,1.87,0,0,1-1.56.66,1.82,1.82,0,0,1-1.3-.45,1.52,1.52,0,0,1-.47-1.17,1.41,1.41,0,0,1,.51-1.15,2.38,2.38,0,0,1,1.47-.42h1.35v-.06a.68.68,0,0,0-.26-.57,1.18,1.18,0,0,0-.73-.2,2.89,2.89,0,0,0-.73.1,4.57,4.57,0,0,0-.82.31l-.47-1.15a6.73,6.73,0,0,1,1.21-.42,4.81,4.81,0,0,1,1.2-.14,2.54,2.54,0,0,1,1.67.49m-1.44,3.48a.83.83,0,0,0,.37-.48v-.45h-1q-.72,0-.72.54a.54.54,0,0,0,.19.42.73.73,0,0,0,.51.16,1.15,1.15,0,0,0,.67-.19m7,1a2.45,2.45,0,0,1-.66.25,2.76,2.76,0,0,1-.75.1,1.76,1.76,0,0,1-1.24-.44,1.58,1.58,0,0,1-.48-1.22v-2.22h-.71V121H84v-1.43h1.7V121H87v1.13H85.67v2c0,.37.15.55.45.55a1.78,1.78,0,0,0,.66-.17Zm2.77-7a.87.87,0,0,1,.25.65.88.88,0,0,1-.25.65.93.93,0,0,1-1.29,0,.88.88,0,0,1-.25-.65.91.91,0,0,1,1.54-.65m-1.48,2.12h1.7v5.18h-1.7Zm7.36.28a2.34,2.34,0,0,1,1,.93,2.58,2.58,0,0,1,.36,1.38,2.64,2.64,0,0,1-.36,1.39,2.34,2.34,0,0,1-1,.93,3.51,3.51,0,0,1-3,0,2.46,2.46,0,0,1-1-.93,2.73,2.73,0,0,1-.35-1.39,2.67,2.67,0,0,1,.35-1.38,2.46,2.46,0,0,1,1-.93,3.51,3.51,0,0,1,3,0m-2.29,1.4a1.59,1.59,0,0,0,0,1.86,1,1,0,0,0,.81.36,1,1,0,0,0,.81-.36,1.37,1.37,0,0,0,.31-.93,1.33,1.33,0,0,0-.32-.93,1,1,0,0,0-.8-.36,1,1,0,0,0-.81.36m9.76-1.21a2,2,0,0,1,.51,1.45v3.26H102v-2.77a1,1,0,0,0-.24-.7.83.83,0,0,0-.64-.25,1,1,0,0,0-.69.28,1.09,1.09,0,0,0-.32.7v2.74h-1.7v-5.18h1.7v.85a1.78,1.78,0,0,1,.71-.68,2,2,0,0,1,1-.23,1.81,1.81,0,0,1,1.36.53m9.29-.19a2.2,2.2,0,0,1,.84.94,3.1,3.1,0,0,1,.3,1.4,3,3,0,0,1-.29,1.37,2.07,2.07,0,0,1-.83.92,2.36,2.36,0,0,1-1.25.33,2.1,2.1,0,0,1-.88-.19,1.78,1.78,0,0,1-.68-.54v2.52H108v-7h1.7v.67a1.84,1.84,0,0,1,1.52-.72,2.43,2.43,0,0,1,1.27.33m-.88,3.23a1.36,1.36,0,0,0,.31-.93,1.32,1.32,0,0,0-.31-.93,1,1,0,0,0-.81-.36,1,1,0,0,0-.79.36,1.32,1.32,0,0,0-.31.93,1.36,1.36,0,0,0,.31.93,1,1,0,0,0,.79.35,1.05,1.05,0,0,0,.81-.35m7.26-3.23a2.43,2.43,0,0,1,1,.93,2.67,2.67,0,0,1,.35,1.38,2.73,2.73,0,0,1-.35,1.39,2.43,2.43,0,0,1-1,.93,3.48,3.48,0,0,1-3,0,2.34,2.34,0,0,1-1-.93,2.73,2.73,0,0,1-.35-1.39,2.67,2.67,0,0,1,.35-1.38,2.34,2.34,0,0,1,1-.93,3.48,3.48,0,0,1,3,0m-2.28,1.4a1.55,1.55,0,0,0,0,1.86,1.08,1.08,0,0,0,1.61,0,1.55,1.55,0,0,0,0-1.86,1,1,0,0,0-.81-.36,1,1,0,0,0-.8.36m4.12-1.68h1.73l1,3.51,1-3.51h1.62l1,3.51,1-3.51h1.66L128,125.94h-1.68l-1-3.19-1,3.19h-1.68Zm14.23.69a2.9,2.9,0,0,1,.68,2,2.63,2.63,0,0,1,0,.31H132a1.21,1.21,0,0,0,.43.67,1.15,1.15,0,0,0,.74.24,1.62,1.62,0,0,0,.65-.14,1.81,1.81,0,0,0,.57-.39l.89.89a2.55,2.55,0,0,1-1,.68,3.3,3.3,0,0,1-1.29.24,3,3,0,0,1-1.45-.33,2.19,2.19,0,0,1-1-.92,2.75,2.75,0,0,1-.33-1.37,2.87,2.87,0,0,1,.34-1.4,2.27,2.27,0,0,1,1-.94,2.91,2.91,0,0,1,1.41-.33,2.51,2.51,0,0,1,1.94.74m-1,1.45a1,1,0,0,0-.27-.72.88.88,0,0,0-.69-.28.9.9,0,0,0-.67.27,1.24,1.24,0,0,0-.36.73Zm5.4-2a1.91,1.91,0,0,1,1-.24v1.56h-.26a1.58,1.58,0,0,0-1,.28,1.11,1.11,0,0,0-.43.77v2.64H137v-5.18h1.7v.87a1.85,1.85,0,0,1,.7-.69m6.41.51a3,3,0,0,1,.68,2,2.63,2.63,0,0,1,0,.31h-3.6a1.33,1.33,0,0,0,.43.67,1.2,1.2,0,0,0,.75.24,1.65,1.65,0,0,0,.65-.14,1.89,1.89,0,0,0,.56-.39l.89.89a2.48,2.48,0,0,1-1,.68,3.28,3.28,0,0,1-1.28.24,3.08,3.08,0,0,1-1.46-.33,2.22,2.22,0,0,1-.95-.92,2.75,2.75,0,0,1-.33-1.37,2.87,2.87,0,0,1,.33-1.4,2.32,2.32,0,0,1,.95-.94,3,3,0,0,1,1.42-.33,2.51,2.51,0,0,1,1.94.74m-1,1.45a1,1,0,0,0-.26-.72.89.89,0,0,0-.69-.28.93.93,0,0,0-.68.27,1.36,1.36,0,0,0-.36.73Zm8.23-4.06v7.1h-1.7v-.67a1.74,1.74,0,0,1-.66.55,2.06,2.06,0,0,1-.87.19,2.43,2.43,0,0,1-1.27-.34,2.26,2.26,0,0,1-.84-.94,3.13,3.13,0,0,1-.3-1.4,3.18,3.18,0,0,1,.29-1.38,2.27,2.27,0,0,1,.84-.92,2.38,2.38,0,0,1,1.24-.32,1.95,1.95,0,0,1,1.57.73v-2.6Zm-2,5.47a1.57,1.57,0,0,0,0-1.87,1,1,0,0,0-.8-.36,1,1,0,0,0-.81.36,1.57,1.57,0,0,0,0,1.87,1,1,0,0,0,.81.36,1,1,0,0,0,.8-.36M162,121a2.16,2.16,0,0,1,.85.94,3.4,3.4,0,0,1,0,2.77,2.13,2.13,0,0,1-.83.92,2.36,2.36,0,0,1-1.25.33,2.15,2.15,0,0,1-.89-.19,1.75,1.75,0,0,1-.67-.54v.67h-1.7v-7.1h1.7v2.59a1.82,1.82,0,0,1,1.52-.72A2.37,2.37,0,0,1,162,121m-.87,3.23a1.41,1.41,0,0,0,.31-.93,1.37,1.37,0,0,0-.31-.93,1,1,0,0,0-.81-.36,1,1,0,0,0-.79.36,1.32,1.32,0,0,0-.31.93,1.36,1.36,0,0,0,.31.93,1,1,0,0,0,.79.35,1.05,1.05,0,0,0,.81-.35m5.21,3.25a2.1,2.1,0,0,1-1.23.35,2.32,2.32,0,0,1-.8-.13,2.51,2.51,0,0,1-.73-.4l.71-1.18a1.22,1.22,0,0,0,.34.22,1,1,0,0,0,.35.07.66.66,0,0,0,.62-.4l.12-.23-2.14-5.06h1.75l1.23,3.37,1.1-3.37h1.7l-2.22,5.69a2.31,2.31,0,0,1-.8,1.07m10.89-6.07a3,3,0,0,1,.68,2c0,.13,0,.24,0,.31h-3.6a1.26,1.26,0,0,0,.43.67,1.18,1.18,0,0,0,.75.24,1.57,1.57,0,0,0,.64-.14,1.81,1.81,0,0,0,.57-.39l.89.89a2.48,2.48,0,0,1-1,.68,3.28,3.28,0,0,1-1.28.24,3.08,3.08,0,0,1-1.46-.33,2.22,2.22,0,0,1-.95-.92,2.75,2.75,0,0,1-.33-1.37,2.87,2.87,0,0,1,.33-1.4,2.32,2.32,0,0,1,.95-.94,3,3,0,0,1,1.42-.33,2.51,2.51,0,0,1,1.94.74m-1,1.45a1,1,0,0,0-.26-.72.89.89,0,0,0-.69-.28.93.93,0,0,0-.68.27,1.36,1.36,0,0,0-.36.73Zm2.14-2.14h1.76l1.08,3.6,1.09-3.6H184l-1.94,5.18h-1.75Zm10.74.69a3,3,0,0,1,.68,2c0,.13,0,.24,0,.31h-3.6a1.26,1.26,0,0,0,.43.67,1.18,1.18,0,0,0,.75.24,1.57,1.57,0,0,0,.64-.14,1.81,1.81,0,0,0,.57-.39l.89.89a2.55,2.55,0,0,1-1,.68,3.3,3.3,0,0,1-1.29.24,3,3,0,0,1-1.45-.33,2.22,2.22,0,0,1-.95-.92,2.75,2.75,0,0,1-.33-1.37,2.87,2.87,0,0,1,.33-1.4,2.32,2.32,0,0,1,.95-.94,3,3,0,0,1,1.42-.33,2.52,2.52,0,0,1,1.94.74m-1,1.45a1,1,0,0,0-.26-.72.9.9,0,0,0-.69-.28.93.93,0,0,0-.68.27,1.36,1.36,0,0,0-.36.73Zm5.4-2a1.94,1.94,0,0,1,1-.24v1.56h-.26a1.55,1.55,0,0,0-1,.28,1.08,1.08,0,0,0-.43.77v2.64h-1.7v-5.18h1.7v.87a1.9,1.9,0,0,1,.69-.69m3.67-2.3a.87.87,0,0,1,.26.65.89.89,0,0,1-.26.65.87.87,0,0,1-.64.26.87.87,0,0,1-.9-.91.87.87,0,0,1,.25-.65.89.89,0,0,1,.65-.26.87.87,0,0,1,.64.26m-1.47,2.12h1.69v5.18h-1.69Zm7.69.69a3,3,0,0,1,.68,2c0,.13,0,.24,0,.31h-3.6a1.26,1.26,0,0,0,.43.67,1.16,1.16,0,0,0,.75.24,1.61,1.61,0,0,0,.64-.14,1.81,1.81,0,0,0,.57-.39l.89.89a2.55,2.55,0,0,1-1,.68,3.3,3.3,0,0,1-1.29.24,3,3,0,0,1-1.45-.33,2.17,2.17,0,0,1-1-.92,2.75,2.75,0,0,1-.33-1.37,2.87,2.87,0,0,1,.33-1.4,2.32,2.32,0,0,1,1-.94,2.94,2.94,0,0,1,1.41-.33,2.53,2.53,0,0,1,1.95.74m-1,1.45a1,1,0,0,0-.26-.72,1,1,0,0,0-1.37,0,1.36,1.36,0,0,0-.36.73Zm7.78-1.67a2,2,0,0,1,.51,1.45v3.26h-1.69v-2.77a1,1,0,0,0-.24-.7.83.83,0,0,0-.64-.25,1,1,0,0,0-.69.28,1,1,0,0,0-.32.7v2.74h-1.71v-5.18h1.71v.85a1.78,1.78,0,0,1,.71-.68,2,2,0,0,1,1-.23,1.81,1.81,0,0,1,1.36.53m4.47.88a.92.92,0,0,0-.74.35,1.42,1.42,0,0,0-.29.91,1.4,1.4,0,0,0,.29.91,1,1,0,0,0,.74.34,1.07,1.07,0,0,0,1-.58l1.25.71a2,2,0,0,1-.92.92,3,3,0,0,1-1.43.33,2.87,2.87,0,0,1-1.4-.33,2.23,2.23,0,0,1-.93-.92,2.75,2.75,0,0,1-.33-1.37,2.87,2.87,0,0,1,.33-1.4,2.36,2.36,0,0,1,.94-.94,2.94,2.94,0,0,1,1.41-.33A2.8,2.8,0,0,1,216,121a2.27,2.27,0,0,1,.94.9l-1.23.72a1.17,1.17,0,0,0-1-.54m7.61-.66a3,3,0,0,1,.68,2c0,.13,0,.24,0,.31h-3.6a1.26,1.26,0,0,0,.43.67,1.16,1.16,0,0,0,.75.24,1.61,1.61,0,0,0,.64-.14,1.81,1.81,0,0,0,.57-.39l.89.89a2.55,2.55,0,0,1-1,.68,3.3,3.3,0,0,1-1.29.24,3,3,0,0,1-1.45-.33,2.22,2.22,0,0,1-.95-.92,2.75,2.75,0,0,1-.33-1.37A2.87,2.87,0,0,1,218,122,2.32,2.32,0,0,1,219,121a3,3,0,0,1,1.42-.33,2.52,2.52,0,0,1,1.94.74m-1,1.45a1,1,0,0,0-.26-.72,1,1,0,0,0-1.37,0,1.36,1.36,0,0,0-.36.73Zm-54.46-26a10.73,10.73,0,0,0,0-12.67,7.39,7.39,0,0,0-10.92,0,10.51,10.51,0,0,0,0,12.63,6.9,6.9,0,0,0,5.48,2.43,6.81,6.81,0,0,0,5.44-2.43"/><path d="M218.21,77.52q4.59,5.06,4.6,13.87c0,.9,0,1.59-.07,2.07H198.38A8.38,8.38,0,0,0,201.3,98a8,8,0,0,0,5,1.59,11,11,0,0,0,4.37-.91,12.37,12.37,0,0,0,3.86-2.66l6,6a17.85,17.85,0,0,1-6.58,4.63,22.7,22.7,0,0,1-8.72,1.59,21.07,21.07,0,0,1-9.85-2.2A15.4,15.4,0,0,1,189,99.88a18.9,18.9,0,0,1-2.24-9.34,19.39,19.39,0,0,1,2.27-9.49,15.68,15.68,0,0,1,6.41-6.35,19.94,19.94,0,0,1,9.59-2.24q8.56,0,13.16,5.06M211.6,87.3a6.77,6.77,0,0,0-1.78-4.89,6.8,6.8,0,0,0-9.27,0,9,9,0,0,0-2.43,4.92Z"/><rect class="cls-5" x="19.05" y="52.58" width="12.49" height="12.49"/><path class="cls-1" d="M130.42,52.43a7.61,7.61,0,0,0-1.52.16v4.34L137.72,62a7.78,7.78,0,0,0,.27-2,7.57,7.57,0,0,0-7.57-7.57"/><path class="cls-3" d="M133.84,60.27,125,65.34a7.55,7.55,0,0,0,12.58-2.91Z"/><path class="cls-2" d="M128.5,62.83l0-10.11A7.56,7.56,0,0,0,124.7,65Z"/><rect class="cls-6" width="231.09" height="132.45"/></g></g></svg>